# Blender 3.6.4
# www.blender.org
mtllib Chair.mtl
o Chairs
v -0.392738 0.443962 0.659507
v 0.047262 0.443962 0.659507
v -0.392738 0.443962 1.107773
v 0.047262 0.443962 1.107773
v -0.357828 0.543962 0.713601
v -0.377633 0.527331 0.678312
v 0.012352 0.543962 0.713601
v 0.032157 0.527331 0.678312
v -0.357828 0.543962 1.096305
v -0.377633 0.527331 1.108125
v -0.378240 0.543962 1.117357
v 0.032157 0.527331 1.108125
v 0.012352 0.543962 1.096305
v 0.032764 0.543962 1.117357
v -0.392738 0.504124 0.659507
v -0.385240 0.519584 0.668842
v 0.039764 0.519584 0.668842
v 0.047262 0.504124 0.659507
v 0.047262 0.504124 1.107773
v 0.039764 0.519584 1.107947
v -0.392738 0.504124 1.107773
v -0.385240 0.519584 1.107947
v -0.400870 0.452359 1.112042
v -0.400870 0.452359 0.647207
v 0.055394 0.452359 0.647207
v 0.055394 0.452359 1.112042
v -0.369991 0.443962 1.209507
v -0.392738 0.443962 1.169379
v -0.370058 0.543962 1.209507
v -0.388367 0.543962 1.169962
v 0.047262 0.443962 1.169379
v 0.024515 0.443962 1.209507
v 0.042891 0.543962 1.169962
v 0.024581 0.543962 1.209507
v -0.370048 0.519772 1.209507
v -0.390656 0.519719 1.169542
v -0.392738 0.504124 1.169410
v -0.370031 0.504124 1.209507
v 0.024555 0.504124 1.209507
v 0.047262 0.504124 1.169410
v 0.045180 0.519719 1.169542
v 0.024572 0.519772 1.209507
v 0.032662 0.452359 1.217537
v 0.055394 0.452359 1.177420
v -0.378138 0.452359 1.217537
v -0.400870 0.452359 1.177420
v -0.351466 1.088167 1.123558
v -0.378240 1.062740 1.117357
v -0.347283 1.088167 1.115630
v -0.357828 1.062740 1.096305
v 0.012352 1.062740 1.096305
v 0.001806 1.088167 1.115630
v 0.005990 1.088167 1.123558
v 0.032764 1.062740 1.117357
v 0.010736 1.088167 1.177042
v 0.024584 1.062740 1.209507
v 0.011414 1.088167 1.175151
v 0.042892 1.062740 1.169965
v -0.356891 1.088167 1.175151
v -0.388368 1.062740 1.169965
v -0.356212 1.088167 1.177042
v -0.370061 1.062740 1.209507
vn -0.0000 -0.0000 1.0000
vn -0.9879 0.1552 -0.0000
vn -0.0000 -0.6911 0.7227
vn -0.0000 -0.0000 -1.0000
vn -0.0000 0.7740 -0.6332
vn -0.0000 -1.0000 -0.0000
vn -0.7135 0.7006 -0.0000
vn 0.7135 0.7006 -0.0000
vn -0.0000 0.2312 -0.9729
vn -0.0000 1.0000 -0.0000
vn -0.9584 0.2282 -0.1717
vn -0.6754 0.3389 -0.6549
vn 0.6754 0.3389 -0.6549
vn -0.6431 0.7658 -0.0000
vn -0.0000 0.9046 -0.4263
vn 0.6431 0.7658 -0.0000
vn 0.9879 0.1552 -0.0000
vn -0.9546 0.2949 -0.0423
vn -0.0000 0.5169 -0.8560
vn -0.8998 0.4364 -0.0000
vn 0.8998 0.4364 -0.0000
vn -0.0000 0.1533 0.9882
vn 0.7184 -0.6957 -0.0000
vn -0.0000 -0.8259 -0.5638
vn 0.9546 0.2949 -0.0423
vn 0.9075 -0.0000 0.4202
vn -0.9075 -0.0000 0.4201
vn -0.7184 -0.6957 -0.0000
vn 0.9584 0.2282 -0.1717
vn 0.9820 -0.0000 -0.1890
vn 0.7179 -0.0000 -0.6961
vn -0.9820 -0.0000 -0.1890
vn 0.8782 0.0560 0.4751
vn -0.8782 0.0560 0.4751
vn -0.8975 0.0384 0.4393
vn 0.8975 0.0384 0.4393
vn 0.8510 0.2082 0.4821
vn -0.5266 -0.7960 0.2984
vn 0.5266 -0.7960 0.2984
vn -0.8510 0.2082 0.4821
vn -0.5711 0.6624 -0.4847
vn 0.5711 0.6624 -0.4847
vn -0.0000 0.6051 -0.7962
vn 0.6321 0.7187 0.2896
vn -0.6321 0.7187 0.2896
vn -0.0000 0.7873 0.6166
vn -0.6439 0.7591 -0.0961
vn 0.6439 0.7591 -0.0961
vn -0.7179 -0.0000 -0.6961
vt 0.564525 0.762892
vt 0.564525 0.987108
vt 0.525407 0.987098
vt 0.525407 0.762902
vt 0.395993 0.046243
vt 0.525407 0.046243
vt 0.525407 0.250000
vt 0.395993 0.250000
vt 0.525407 0.012879
vt 0.395993 0.012428
vt 0.375000 0.762924
vt 0.395993 0.762455
vt 0.395993 0.987545
vt 0.375000 0.987076
vt 0.629601 0.703757
vt 0.870399 0.703757
vt 0.582597 0.250000
vt 0.620775 0.250000
vt 0.620775 0.500000
vt 0.582597 0.500000
vt 0.125000 0.703757
vt 0.375000 0.703757
vt 0.375000 0.737107
vt 0.362076 0.750000
vt 0.137924 0.750000
vt 0.125000 0.737107
vt 0.582597 0.046243
vt 0.620774 0.046243
vt 0.582597 0.500000
vt 0.620775 0.500000
vt 0.620774 0.703757
vt 0.582597 0.703757
vt 0.525407 0.500000
vt 0.395993 0.500000
vt 0.125000 0.500000
vt 0.375000 0.500000
vt 0.640856 0.719042
vt 0.642577 0.717509
vt 0.857423 0.717509
vt 0.859144 0.719042
vt 0.858191 0.733559
vt 0.857703 0.734024
vt 0.642297 0.734024
vt 0.641809 0.733559
vt 0.569543 0.012840
vt 0.625000 0.012674
vt 0.625000 0.042040
vt 0.620774 0.046243
vt 0.625000 0.046243
vt 0.625477 0.703726
vt 0.625000 0.707960
vt 0.625000 0.245399
vt 0.625000 0.254601
vt 0.625000 0.495399
vt 0.629601 0.504601
vt 0.870399 0.504601
vt 0.525407 0.703757
vt 0.395993 0.703757
vt 0.569543 0.012840
vt 0.525407 0.012879
vt 0.525407 0.737121
vt 0.395993 0.737572
vt 0.395993 0.987545
vt 0.625000 0.762887
vt 0.625000 0.987113
vt 0.375000 0.250000
vt 0.569543 0.737160
vt 0.625000 0.737326
vt 0.625000 0.737327
vt 0.625000 0.762885
vt 0.625000 0.762887
vt 0.625000 0.012673
vt 0.625000 0.012674
vt 0.625000 0.000000
vt 0.375000 0.046243
vt 0.625000 0.707960
vt 0.625000 0.737326
vt 0.569543 0.737160
vt 0.395993 0.737572
vt 0.375000 0.737107
vt 0.525407 0.000000
vt 0.564525 0.000000
vt 0.395993 0.012428
vt 0.375000 0.012893
vt 0.375000 0.000000
vt 0.393358 0.000000
vt 0.396453 0.000000
vt 0.625000 0.762885
vt 0.625000 0.987115
vt 0.870399 0.703757
vt 0.875000 0.707960
vt 0.637885 0.750000
vt 0.625000 0.737327
vt 0.875000 0.737327
vt 0.862115 0.750000
vt 0.637885 0.750000
vt 0.875000 0.737327
s 0
usemtl m_chairTop
f 42/1/1 35/2/1 38/3/1 39/4/1
f 23/5/2 21/6/2 15/7/2 24/8/2
f 37/9/2 21/6/2 23/5/2 46/10/2
f 32/11/3 43/12/3 45/13/3 27/14/3
f 3/21/6 4/22/6 31/23/6 32/24/6 27/25/6 28/26/6
f 24/8/9 15/7/9 18/33/9 25/34/9
f 1/35/6 2/36/6 4/22/6 3/21/6
f 25/34/17 18/33/17 19/57/17 26/58/17
f 36/59/18 22/27/18 21/6/18 37/60/18
f 26/58/17 19/57/17 40/61/17 44/62/17
f 16/17/19 17/20/19 18/33/19 15/7/19
f 22/27/20 16/17/20 15/7/20 21/6/20
f 17/29/21 20/32/21 19/57/21 18/33/21
f 43/12/22 39/4/22 38/3/22 45/63/22
f 42/1/1 34/64/1 29/65/1 35/2/1
f 2/36/23 25/34/23 26/58/23 4/22/23
f 1/66/24 24/8/24 25/34/24 2/36/24
f 20/32/25 41/67/25 40/61/25 19/57/25
f 33/68/26 58/69/26 56/70/26 34/71/26
f 60/72/27 30/73/27 29/74/27 62/74/27
f 3/75/28 23/5/28 24/8/28 1/66/28
f 4/22/23 26/58/23 44/79/23 31/80/23
f 40/61/33 41/67/33 42/1/33 39/4/33
f 36/59/34 37/60/34 38/81/34 35/82/34
f 35/82/35 29/74/35 30/46/35 36/45/35
f 41/78/36 33/77/36 34/64/36 42/1/36
f 44/62/37 40/61/37 39/4/37 43/12/37
f 46/83/38 28/84/38 27/85/38 45/86/38
f 31/80/39 44/79/39 43/12/39 32/11/39
f 37/9/40 46/10/40 45/87/40 38/81/40
f 29/65/1 34/71/1 56/88/1 62/89/1
f 46/83/28 23/5/28 3/75/28 28/84/28
f 57/44/44 55/43/44 56/92/44 58/93/44
f 61/42/45 59/41/45 60/94/45 62/95/45
f 55/43/46 61/42/46 62/95/46 56/96/46
usemtl m_chairCushions
f 13/15/4 9/16/4 50/16/4 51/15/4
f 16/17/5 6/18/5 8/19/5 17/20/5
f 22/27/7 10/28/7 6/18/7 16/17/7
f 17/29/8 8/30/8 12/31/8 20/32/8
f 53/37/10 52/38/10 49/39/10 47/40/10 59/41/10 61/42/10 55/43/10 57/44/10
f 36/45/11 30/46/11 11/47/11 10/48/11 22/27/11
f 9/49/12 10/48/12 11/47/12
f 12/31/13 13/50/13 14/51/13
f 9/49/14 5/52/14 6/18/14 10/28/14
f 5/53/15 7/54/15 8/19/15 6/18/15
f 7/55/16 13/15/16 12/31/16 8/30/16
f 7/55/10 5/56/10 9/16/10 13/15/10
f 20/32/29 12/31/29 14/76/29 33/77/29 41/78/29
f 33/68/30 14/76/30 54/76/30 58/69/30
f 14/51/31 13/50/31 51/50/31 54/51/31
f 11/47/32 30/73/32 60/72/32 48/47/32
f 47/40/41 49/39/41 50/90/41 48/91/41
f 52/38/42 53/37/42 54/51/42 51/15/42
f 49/39/43 52/38/43 51/15/43 50/16/43
f 59/41/47 47/40/47 48/91/47 60/97/47
f 53/37/48 57/44/48 58/69/48 54/76/48
f 9/49/49 11/47/49 48/47/49 50/49/49
